<?xml version="1.0" standalone="no"?>
<!DOCTYPE svg PUBLIC "-//W3C//DTD SVG 20010904//EN"
 "http://www.w3.org/TR/2001/REC-SVG-20010904/DTD/svg10.dtd">
<svg version="1.0" xmlns="http://www.w3.org/2000/svg"
 width="800.000000pt" height="600.000000pt" viewBox="0 0 800.000000 600.000000"
 preserveAspectRatio="xMidYMid meet">

<g transform="translate(0.000000,600.000000) scale(0.100000,-0.100000)"
fill="#000000" stroke="none">
<path d="M3787 5114 c-438 -68 -767 -278 -871 -556 -73 -194 -132 -540 -152
-885 l-7 -122 -48 25 c-51 25 -107 31 -140 14 -46 -25 -79 -140 -79 -279 0
-181 53 -354 148 -484 l35 -49 -34 -156 c-30 -141 -34 -172 -33 -307 1 -129 4
-164 27 -250 32 -119 107 -275 177 -367 154 -203 572 -531 915 -718 245 -133
295 -133 540 0 343 187 761 515 915 718 70 92 145 248 177 367 23 86 26 121
27 250 1 135 -3 166 -33 307 l-34 156 37 50 c46 63 98 177 121 262 23 89 31
273 15 352 -14 73 -42 133 -69 148 -33 17 -89 11 -139 -14 l-48 -24 -12 176
c-31 449 -108 797 -212 956 -200 306 -759 503 -1223 430z m476 -94 c120 -25
236 -61 324 -101 37 -17 69 -32 71 -34 2 -2 -23 -41 -56 -87 -188 -261 -565
-907 -545 -934 4 -7 38 -50 76 -97 37 -47 92 -125 123 -174 52 -82 54 -88 34
-91 -26 -4 -65 29 -90 77 l-17 35 -16 -30 c-23 -45 -47 -134 -47 -175 0 -73
38 -129 88 -129 22 0 48 -19 113 -82 47 -46 117 -101 155 -124 l69 -41 45
-104 c25 -58 54 -127 66 -154 l20 -50 80 77 c43 42 91 99 106 125 l26 48 -44
108 -44 107 34 53 c58 91 59 104 5 44 l-52 -59 -14 26 c-12 22 -12 33 -2 61
12 32 11 37 -11 60 -13 13 -31 27 -40 30 -9 3 -29 32 -43 65 -25 59 -25 60 -6
71 46 24 176 49 261 49 48 0 88 4 88 8 0 15 -78 72 -128 95 -64 29 -138 27
-226 -7 -37 -14 -70 -26 -72 -26 -2 0 -27 45 -54 101 l-51 101 48 56 c102 123
471 462 502 462 9 0 31 -97 56 -243 24 -140 44 -361 51 -549 l7 -173 -42 -160
c-59 -225 -127 -436 -153 -475 -22 -33 -195 -184 -270 -237 l-38 -26 -56 34
c-59 36 -200 162 -234 209 -11 15 -26 56 -32 91 -9 45 -18 65 -29 67 -18 3
-119 -74 -126 -95 -3 -9 9 -8 42 3 25 9 48 14 50 12 3 -2 7 -36 11 -75 l7 -70
-79 -61 c-44 -34 -108 -77 -144 -96 l-65 -35 -65 35 c-36 19 -100 62 -144 96
l-79 61 7 70 c4 39 8 73 11 75 2 2 25 -3 50 -12 33 -11 45 -12 42 -3 -7 21
-108 98 -126 95 -11 -2 -20 -22 -29 -67 -6 -35 -21 -76 -32 -91 -34 -48 -175
-174 -234 -209 l-56 -34 -38 26 c-75 53 -248 204 -270 237 -26 39 -94 249
-152 470 -45 174 -48 222 -30 480 25 354 85 670 159 843 31 72 109 164 190
225 165 124 373 201 666 246 68 10 303 -4 398 -24z m-1572 -1528 c66 -43 69
-49 62 -129 l-6 -71 -40 18 c-23 10 -45 16 -50 13 -4 -2 4 -26 19 -51 15 -26
34 -59 43 -73 13 -22 12 -41 -4 -162 -9 -75 -21 -137 -26 -137 -14 0 -67 114
-91 197 -30 101 -33 325 -6 386 21 45 39 47 99 9z m2707 -9 c27 -61 24 -285
-6 -386 -24 -83 -77 -197 -91 -197 -5 0 -17 62 -26 137 -16 121 -17 140 -4
162 9 14 28 47 43 73 15 25 23 49 19 51 -5 3 -27 -3 -50 -13 l-40 -18 -6 71
c-7 80 -4 86 62 129 60 38 78 36 99 -9z m-688 -128 c80 -41 -14 -92 -128 -69
-28 6 -29 7 -18 38 6 17 16 34 21 38 18 13 95 9 125 -7z m-290 -24 c0 -5 3
-16 6 -25 5 -13 -2 -16 -38 -16 -53 0 -76 17 -50 36 19 15 82 19 82 5z m50
-131 c11 -22 17 -40 13 -40 -5 0 -28 18 -53 40 l-45 39 32 1 c28 0 35 -6 53
-40z m-332 -900 c55 -25 271 -181 272 -197 0 -6 -18 -34 -40 -62 -50 -64 -74
-66 -144 -13 -95 72 -110 77 -231 77 -121 0 -136 -5 -231 -77 -70 -53 -94 -51
-144 13 -22 28 -40 56 -40 62 1 15 208 165 269 194 63 31 224 33 289 3z"/>
<path d="M3684 3991 c-89 -74 -163 -156 -227 -253 -27 -43 -54 -78 -58 -78 -5
0 -32 9 -60 20 -93 37 -142 43 -202 26 -52 -15 -167 -88 -167 -107 0 -5 39 -9
88 -9 89 0 177 -16 250 -45 l40 -16 -18 -51 c-13 -36 -26 -56 -46 -66 -42 -21
-74 -53 -74 -74 0 -10 15 -35 33 -55 28 -33 32 -43 27 -73 l-7 -35 -83 84 -83
84 29 -52 c16 -29 52 -81 80 -115 l52 -63 6 -94 c4 -52 12 -125 18 -164 l12
-70 7 50 c4 28 13 89 19 137 l12 87 39 -19 39 -20 58 29 c77 39 170 110 231
176 39 44 56 55 80 55 53 0 91 54 91 129 0 41 -24 130 -47 175 l-15 30 -15
-30 c-24 -45 -64 -84 -89 -84 -22 0 -159 66 -197 95 -18 13 -17 18 27 107 53
108 126 223 186 291 23 26 41 50 38 52 -2 2 -35 -22 -74 -54z m-208 -569 c-27
-2 -50 -1 -52 1 -3 2 0 16 6 31 l10 26 42 -27 42 -28 -48 -3z m-71 -60 c6 -4
15 -21 21 -38 11 -31 10 -32 -18 -38 -81 -16 -158 3 -158 39 0 32 122 61 155
37z m247 -36 c26 -19 3 -36 -50 -36 -36 0 -43 3 -38 16 3 9 6 20 6 25 0 14 63
10 82 -5z m-92 -126 c-25 -21 -69 -53 -97 -71 -48 -29 -56 -30 -83 -19 -33 14
-37 31 -19 93 l10 37 117 0 117 -1 -45 -39z"/>
</g>
</svg>
